STARTFONT 2.1
FONT -FontForge-Frutiger LT 55 Roman-Book-R-Normal--28-200-100-100-P-152-ISO8859-1
SIZE 20 100 100
FONTBOUNDINGBOX 33 33 -5 -7
COMMENT "Generated by fontforge, http://fontforge.sourceforge.net"
COMMENT "Part of the digitally encoded machine readable outline data for producing the Typefaces provided is copyrighted (c) 1988, 1990, 1994, 2001, 2002, 2003, Linotype Library GmbH, www.linotype.com. All rights reserved. This software is the property of Linotype Library GmbH, and may not be reproduced, used, displayed, modified, disclosed or transferred Library GmbH. Copyright (c) 1988, 1990, 1994, 2001, 2002, 2003, Adobe Systems Incorporated. All rights reserved."
STARTPROPERTIES 40
FOUNDRY "FontForge"
FAMILY_NAME "Frutiger LT 55 Roman"
WEIGHT_NAME "Book"
SLANT "R"
SETWIDTH_NAME "Normal"
ADD_STYLE_NAME ""
PIXEL_SIZE 28
POINT_SIZE 200
RESOLUTION_X 100
RESOLUTION_Y 100
SPACING "P"
AVERAGE_WIDTH 152
CHARSET_REGISTRY "ISO8859"
CHARSET_ENCODING "1"
FONTNAME_REGISTRY ""
CHARSET_COLLECTIONS "ISOLatin1Encoding"
FONT_NAME "FrutigerLT-Roman"
FACE_NAME "Frutiger LT 55 Roman"
COPYRIGHT "Part of the digitally encoded machine readable outline data for producing the Typefaces provided is copyrighted (c) 1988, 1990, 1994, 2001, 2002, 2003, Linotype Library GmbH, www.linotype.com. All rights reserved. This software is the property of Linotype Library GmbH, and may not be reproduced, used, displayed, modified, disclosed or transferred Library GmbH. Copyright (c) 1988, 1990, 1994, 2001, 2002, 2003, Adobe Systems Incorporated. All rights reserved."
FONT_VERSION "6.04"
FONT_ASCENT 22
FONT_DESCENT 6
UNDERLINE_POSITION -4
UNDERLINE_THICKNESS 2
X_HEIGHT 13
CAP_HEIGHT 19
RAW_ASCENT 800
RAW_DESCENT 200
NORM_SPACE 8
RELATIVE_WEIGHT 40
RELATIVE_SETWIDTH 50
SUPERSCRIPT_X 0
SUPERSCRIPT_Y 8
SUPERSCRIPT_SIZE 5
SUBSCRIPT_X 0
SUBSCRIPT_Y 8
SUBSCRIPT_SIZE 5
FIGURE_WIDTH 16
AVG_LOWERCASE_WIDTH 150
AVG_UPPERCASE_WIDTH 181
ENDPROPERTIES
CHARS 232
STARTCHAR space
ENCODING 32
SWIDTH 278 0
DWIDTH 8 0
BBX 1 1 0 0
BITMAP
00
ENDCHAR
STARTCHAR exclam
ENCODING 33
SWIDTH 389 0
DWIDTH 11 0
BBX 3 20 4 0
BITMAP
E0
E0
E0
E0
E0
E0
E0
E0
E0
E0
E0
E0
E0
E0
00
00
00
E0
E0
E0
ENDCHAR
STARTCHAR quotedbl
ENCODING 34
SWIDTH 556 0
DWIDTH 16 0
BBX 6 7 4 13
BITMAP
CC
CC
CC
CC
CC
CC
CC
ENDCHAR
STARTCHAR numbersign
ENCODING 35
SWIDTH 556 0
DWIDTH 16 0
BBX 14 20 1 0
BITMAP
0630
0630
0E30
0C30
0C30
0C70
7FFC
7FFC
0C60
1C60
1860
1860
FFF8
FFF8
18C0
18C0
38C0
30C0
30C0
31C0
ENDCHAR
STARTCHAR dollar
ENCODING 36
SWIDTH 556 0
DWIDTH 16 0
BBX 11 26 3 -3
BITMAP
0C00
0C00
0C00
1F80
7FC0
FFC0
EC00
EC00
EC00
EC00
FC00
7C00
3F00
0F80
0FC0
0DE0
0CE0
0CE0
0CE0
0DE0
CFC0
FF80
FE00
0C00
0C00
0C00
ENDCHAR
STARTCHAR percent
ENCODING 37
SWIDTH 1000 0
DWIDTH 28 0
BBX 22 21 3 -1
BITMAP
3C00C0
7E0180
E70180
C30300
C30300
C30600
C30C00
C30C00
E71800
7E18F0
3C31F8
00739C
00630C
00C30C
00C30C
01830C
01830C
03039C
0601F8
0600F0
0C0000
ENDCHAR
STARTCHAR ampersand
ENCODING 38
SWIDTH 722 0
DWIDTH 20 0
BBX 17 20 2 0
BITMAP
07C000
1FE000
1C7000
383000
383000
387000
1C7000
1DE000
0FC000
1F0700
3F8700
73C600
F1E600
E0FE00
E07C00
E03C00
F03C00
78FE00
3FE700
1F8780
ENDCHAR
STARTCHAR quotesingle
ENCODING 39
SWIDTH 278 0
DWIDTH 8 0
BBX 2 7 3 13
BITMAP
C0
C0
C0
C0
C0
C0
C0
ENDCHAR
STARTCHAR parenleft
ENCODING 40
SWIDTH 333 0
DWIDTH 9 0
BBX 7 25 2 -4
BITMAP
0E
0C
1C
38
38
30
70
70
F0
E0
E0
E0
E0
E0
E0
E0
E0
70
70
70
38
38
1C
0C
0E
ENDCHAR
STARTCHAR parenright
ENCODING 41
SWIDTH 333 0
DWIDTH 9 0
BBX 7 25 1 -4
BITMAP
E0
60
70
38
38
18
1C
1C
1C
0E
0E
0E
0E
0E
0E
0E
1C
1C
1C
18
38
38
70
60
E0
ENDCHAR
STARTCHAR asterisk
ENCODING 42
SWIDTH 556 0
DWIDTH 16 0
BBX 11 11 3 9
BITMAP
0E00
0E00
0E00
CE60
FFE0
7FC0
0E00
1B00
3B80
71C0
2080
ENDCHAR
STARTCHAR plus
ENCODING 43
SWIDTH 600 0
DWIDTH 17 0
BBX 14 14 1 0
BITMAP
0300
0300
0300
0300
0300
0300
FFFC
FFFC
0300
0300
0300
0300
0300
0300
ENDCHAR
STARTCHAR comma
ENCODING 44
SWIDTH 278 0
DWIDTH 8 0
BBX 5 7 0 -4
BITMAP
38
38
70
70
70
60
E0
ENDCHAR
STARTCHAR hyphen
ENCODING 45
SWIDTH 333 0
DWIDTH 9 0
BBX 7 2 1 7
BITMAP
FE
FE
ENDCHAR
STARTCHAR period
ENCODING 46
SWIDTH 278 0
DWIDTH 8 0
BBX 3 3 2 0
BITMAP
E0
E0
E0
ENDCHAR
STARTCHAR slash
ENCODING 47
SWIDTH 278 0
DWIDTH 8 0
BBX 9 20 -1 0
BITMAP
0180
0300
0300
0300
0600
0600
0600
0C00
0C00
0C00
1800
1800
1800
3000
3000
3000
6000
6000
E000
C000
ENDCHAR
STARTCHAR zero
ENCODING 48
SWIDTH 556 0
DWIDTH 16 0
BBX 13 20 1 0
BITMAP
0F80
1FE0
3CE0
7070
7070
F038
E038
E038
E038
E038
E038
E038
E038
E038
6038
7070
7070
3DE0
1FE0
0F80
ENDCHAR
STARTCHAR one
ENCODING 49
SWIDTH 556 0
DWIDTH 16 0
BBX 7 20 4 0
BITMAP
0E
3E
7E
FE
EE
4E
0E
0E
0E
0E
0E
0E
0E
0E
0E
0E
0E
0E
0E
0E
ENDCHAR
STARTCHAR two
ENCODING 50
SWIDTH 556 0
DWIDTH 16 0
BBX 12 20 2 0
BITMAP
3F80
FFC0
71E0
80F0
0070
0070
0070
0070
00E0
01E0
01C0
0380
0700
0E00
1C00
3800
F000
E000
FFF0
FFF0
ENDCHAR
STARTCHAR three
ENCODING 51
SWIDTH 556 0
DWIDTH 16 0
BBX 12 20 2 0
BITMAP
3F00
FFC0
61E0
00F0
0070
0070
0070
00E0
3FC0
3F00
3FC0
01E0
00F0
0070
0070
0070
00F0
E3E0
FFC0
7F00
ENDCHAR
STARTCHAR four
ENCODING 52
SWIDTH 556 0
DWIDTH 16 0
BBX 14 20 1 0
BITMAP
01F0
01F0
03F0
0370
0770
0E70
0E70
1C70
1870
3870
7070
7070
E070
FFFC
FFFC
0070
0070
0070
0070
0070
ENDCHAR
STARTCHAR five
ENCODING 53
SWIDTH 556 0
DWIDTH 16 0
BBX 12 20 2 0
BITMAP
7FE0
7FE0
6000
6000
6000
6000
6000
7F00
7FC0
E3E0
00E0
00F0
0070
0070
0070
0070
00E0
E3E0
FFC0
7F00
ENDCHAR
STARTCHAR six
ENCODING 54
SWIDTH 556 0
DWIDTH 16 0
BBX 13 20 1 0
BITMAP
07F0
1FF0
3E30
3800
7000
7000
E000
E7C0
FFE0
FCF0
F070
F038
E038
E038
E038
7038
7070
3DF0
3FE0
0F80
ENDCHAR
STARTCHAR seven
ENCODING 55
SWIDTH 556 0
DWIDTH 16 0
BBX 12 20 1 0
BITMAP
FFF0
FFF0
0070
0070
00E0
00E0
00E0
01C0
01C0
0380
0380
0380
0700
0700
0E00
0E00
1E00
1C00
1C00
3800
ENDCHAR
STARTCHAR eight
ENCODING 56
SWIDTH 556 0
DWIDTH 16 0
BBX 13 20 1 0
BITMAP
0FC0
3FE0
7CF0
7078
F038
7038
7070
7C70
3FE0
0FC0
3FF0
78F8
F038
E038
E038
E038
F038
7CF8
3FF0
0FC0
ENDCHAR
STARTCHAR nine
ENCODING 57
SWIDTH 556 0
DWIDTH 16 0
BBX 13 20 1 0
BITMAP
0F80
3FE0
7DE0
7070
E070
E038
E038
E078
7078
79F8
3FF8
1F38
0038
0038
0070
0070
00E0
63E0
7FC0
7F00
ENDCHAR
STARTCHAR colon
ENCODING 58
SWIDTH 278 0
DWIDTH 8 0
BBX 3 14 2 0
BITMAP
E0
E0
E0
00
00
00
00
00
00
00
00
E0
E0
E0
ENDCHAR
STARTCHAR semicolon
ENCODING 59
SWIDTH 278 0
DWIDTH 8 0
BBX 5 18 0 -4
BITMAP
38
38
38
00
00
00
00
00
00
00
00
38
38
70
70
70
60
E0
ENDCHAR
STARTCHAR less
ENCODING 60
SWIDTH 600 0
DWIDTH 17 0
BBX 14 14 1 0
BITMAP
000C
003C
00F8
03E0
1F80
7E00
F000
F000
7C00
1F80
07E0
00F8
003C
000C
ENDCHAR
STARTCHAR equal
ENCODING 61
SWIDTH 600 0
DWIDTH 17 0
BBX 14 8 1 3
BITMAP
FFFC
FFFC
0000
0000
0000
0000
FFFC
FFFC
ENDCHAR
STARTCHAR greater
ENCODING 62
SWIDTH 600 0
DWIDTH 17 0
BBX 14 14 2 0
BITMAP
C000
F000
7C00
1F00
07E0
01F8
003C
003C
00F8
07E0
1F80
7C00
F000
C000
ENDCHAR
STARTCHAR question
ENCODING 63
SWIDTH 500 0
DWIDTH 14 0
BBX 10 20 2 0
BITMAP
7E00
FF80
FFC0
81C0
01C0
01C0
01C0
01C0
0380
0700
0F00
0E00
1C00
1C00
1C00
0000
0000
1C00
1C00
1C00
ENDCHAR
STARTCHAR at
ENCODING 64
SWIDTH 800 0
DWIDTH 22 0
BBX 20 20 1 0
BITMAP
01FC00
07FF00
1E0780
3801C0
3000E0
71FB60
63FE60
E70E30
C60E30
CE0E30
CE0C60
CE0C60
EE1CC0
677DC0
67FF80
71CE00
3801E0
1E0380
0FFF00
01FC00
ENDCHAR
STARTCHAR A
ENCODING 65
SWIDTH 722 0
DWIDTH 20 0
BBX 19 20 1 0
BITMAP
00E000
01E000
01F000
01B000
03B000
033800
071800
061C00
0E1C00
0E0E00
0C0E00
1C0600
180700
3FFF00
3FFF80
300380
700180
6001C0
E001C0
C000E0
ENDCHAR
STARTCHAR B
ENCODING 66
SWIDTH 611 0
DWIDTH 17 0
BBX 13 20 2 0
BITMAP
FF80
FFE0
E1F0
E070
E070
E070
E070
E070
E0E0
FFC0
FF80
E1E0
E070
E030
E038
E038
E070
E1F0
FFE0
FF80
ENDCHAR
STARTCHAR C
ENCODING 67
SWIDTH 611 0
DWIDTH 17 0
BBX 15 20 1 0
BITMAP
01FC
07FE
1FDE
3E02
7800
7000
7000
E000
E000
E000
E000
E000
E000
7000
7000
7800
3E00
1FDE
0FFE
01FC
ENDCHAR
STARTCHAR D
ENCODING 68
SWIDTH 722 0
DWIDTH 20 0
BBX 16 20 2 0
BITMAP
FF80
FFF0
E1F8
E03C
E01E
E00E
E007
E007
E007
E007
E007
E007
E007
E007
E00E
E01E
E03C
E3F8
FFF0
FFC0
ENDCHAR
STARTCHAR E
ENCODING 69
SWIDTH 556 0
DWIDTH 16 0
BBX 11 20 3 0
BITMAP
FFE0
FFE0
E000
E000
E000
E000
E000
E000
FFC0
FFC0
E000
E000
E000
E000
E000
E000
E000
E000
FFE0
FFE0
ENDCHAR
STARTCHAR F
ENCODING 70
SWIDTH 500 0
DWIDTH 14 0
BBX 10 20 2 0
BITMAP
FFC0
FFC0
E000
E000
E000
E000
E000
E000
FFC0
FFC0
E000
E000
E000
E000
E000
E000
E000
E000
E000
E000
ENDCHAR
STARTCHAR G
ENCODING 71
SWIDTH 722 0
DWIDTH 20 0
BBX 16 20 2 0
BITMAP
03FC
0FFF
1FFF
3C01
7800
F000
E000
E000
E000
E07F
E07F
E007
E007
E007
F007
7807
3C07
1FDF
0FFF
03FE
ENDCHAR
STARTCHAR H
ENCODING 72
SWIDTH 722 0
DWIDTH 20 0
BBX 15 20 3 0
BITMAP
E00E
E00E
E00E
E00E
E00E
E00E
E00E
E00E
FFFE
FFFE
E00E
E00E
E00E
E00E
E00E
E00E
E00E
E00E
E00E
E00E
ENDCHAR
STARTCHAR I
ENCODING 73
SWIDTH 278 0
DWIDTH 8 0
BBX 3 20 3 0
BITMAP
E0
E0
E0
E0
E0
E0
E0
E0
E0
E0
E0
E0
E0
E0
E0
E0
E0
E0
E0
E0
ENDCHAR
STARTCHAR J
ENCODING 74
SWIDTH 389 0
DWIDTH 11 0
BBX 8 20 1 0
BITMAP
07
07
07
07
07
07
07
07
07
07
07
07
07
07
07
07
0F
BE
FE
F8
ENDCHAR
STARTCHAR K
ENCODING 75
SWIDTH 667 0
DWIDTH 19 0
BBX 16 20 3 0
BITMAP
E01E
E038
E078
E0F0
E1E0
E3C0
E780
EF00
FE00
FC00
FE00
EE00
E700
E380
E1C0
E0E0
E070
E038
E01C
E01F
ENDCHAR
STARTCHAR L
ENCODING 76
SWIDTH 500 0
DWIDTH 14 0
BBX 11 20 2 0
BITMAP
E000
E000
E000
E000
E000
E000
E000
E000
E000
E000
E000
E000
E000
E000
E000
E000
E000
E000
FFE0
FFE0
ENDCHAR
STARTCHAR M
ENCODING 77
SWIDTH 944 0
DWIDTH 26 0
BBX 21 20 3 0
BITMAP
F80078
F800F8
F800F8
FC00F8
EC01F8
EE01B8
EE03B8
E60338
E70338
E70738
E30638
E38638
E38C38
E18C38
E1DC38
E0D838
E0F838
E0F838
E07038
E07038
ENDCHAR
STARTCHAR N
ENCODING 78
SWIDTH 722 0
DWIDTH 20 0
BBX 15 20 2 0
BITMAP
F00E
F00E
F80E
F80E
FC0E
EC0E
EE0E
E70E
E30E
E38E
E18E
E1CE
E0CE
E0EE
E06E
E07E
E03E
E03E
E01E
E01E
ENDCHAR
STARTCHAR O
ENCODING 79
SWIDTH 778 0
DWIDTH 22 0
BBX 18 20 2 0
BITMAP
03F000
0FFC00
3FFF00
3C0780
700380
F003C0
E001C0
E001C0
E001C0
E001C0
E001C0
E001C0
E001C0
E001C0
F003C0
700380
3C0780
3FFF00
0FFE00
03F000
ENDCHAR
STARTCHAR P
ENCODING 80
SWIDTH 556 0
DWIDTH 16 0
BBX 12 20 2 0
BITMAP
FF80
FFE0
E3F0
E0F0
E070
E070
E070
E070
E0F0
E3F0
FFE0
FF80
E000
E000
E000
E000
E000
E000
E000
E000
ENDCHAR
STARTCHAR Q
ENCODING 81
SWIDTH 778 0
DWIDTH 22 0
BBX 19 23 1 -3
BITMAP
03F800
0FFE00
1FBF00
3C0780
7803C0
7001C0
F001C0
E000E0
E000E0
E000E0
E000E0
E000E0
E000E0
F001C0
7001C0
7803C0
3C0780
1FBF00
0FFE00
03FC00
000E00
000700
0003C0
ENDCHAR
STARTCHAR R
ENCODING 82
SWIDTH 611 0
DWIDTH 17 0
BBX 14 20 2 0
BITMAP
FF80
FFE0
E3F0
E070
E070
E070
E070
E070
E0E0
FFC0
FF80
E7C0
E1C0
E0E0
E0E0
E070
E070
E038
E038
E01C
ENDCHAR
STARTCHAR S
ENCODING 83
SWIDTH 500 0
DWIDTH 14 0
BBX 11 20 2 0
BITMAP
1F80
7FC0
FDC0
E000
E000
E000
E000
F800
7E00
3F00
0FC0
03C0
01E0
00E0
00E0
00E0
01E0
FFC0
FF80
7E00
ENDCHAR
STARTCHAR T
ENCODING 84
SWIDTH 556 0
DWIDTH 16 0
BBX 15 20 0 0
BITMAP
FFFE
FFFE
0380
0380
0380
0380
0380
0380
0380
0380
0380
0380
0380
0380
0380
0380
0380
0380
0380
0380
ENDCHAR
STARTCHAR U
ENCODING 85
SWIDTH 722 0
DWIDTH 20 0
BBX 15 20 3 0
BITMAP
E00E
E00E
E00E
E00E
E00E
E00E
E00E
E00E
E00E
E00E
E00E
E00E
E00E
E00E
E00E
701C
783C
3EF8
1FF0
0FE0
ENDCHAR
STARTCHAR V
ENCODING 86
SWIDTH 667 0
DWIDTH 19 0
BBX 18 20 1 0
BITMAP
E001C0
E00380
700380
700380
700700
380700
380700
380E00
1C0E00
1C0C00
1C1C00
0E1C00
0E1800
063800
073800
073000
037000
03E000
03E000
01E000
ENDCHAR
STARTCHAR W
ENCODING 87
SWIDTH 1000 0
DWIDTH 28 0
BBX 28 20 0 0
BITMAP
E00F0070
E00F00E0
601F00E0
701F00C0
701B80C0
301981C0
383981C0
3839C180
1831C180
1830C380
1C70C300
1C60E300
0C60E700
0E606600
0EE06600
06C07600
06C07E00
07C03C00
07C03C00
03803C00
ENDCHAR
STARTCHAR X
ENCODING 88
SWIDTH 667 0
DWIDTH 19 0
BBX 18 20 0 0
BITMAP
7803C0
380700
1C0700
1E0E00
0E1C00
071C00
07B800
03F000
01F000
01E000
01F000
03F000
073800
073C00
0E1C00
1C0E00
1C0F00
380700
780380
F003C0
ENDCHAR
STARTCHAR Y
ENCODING 89
SWIDTH 667 0
DWIDTH 19 0
BBX 19 20 0 0
BITMAP
F001E0
7803C0
380380
1C0700
1E0700
0E0E00
071C00
071C00
03B800
01F000
01F000
00E000
00E000
00E000
00E000
00E000
00E000
00E000
00E000
00E000
ENDCHAR
STARTCHAR Z
ENCODING 90
SWIDTH 556 0
DWIDTH 16 0
BBX 14 20 1 0
BITMAP
FFF8
FFF8
0038
0038
0070
00E0
00E0
01C0
0380
0380
0700
0E00
1C00
1C00
3800
7000
7000
E000
FFFC
FFFC
ENDCHAR
STARTCHAR bracketleft
ENCODING 91
SWIDTH 333 0
DWIDTH 9 0
BBX 5 25 3 -4
BITMAP
F8
F8
C0
C0
C0
C0
C0
C0
C0
C0
C0
C0
C0
C0
C0
C0
C0
C0
C0
C0
C0
C0
C0
F8
F8
ENDCHAR
STARTCHAR backslash
ENCODING 92
SWIDTH 278 0
DWIDTH 8 0
BBX 9 20 -1 0
BITMAP
E000
6000
6000
7000
3000
3000
3800
1800
1800
1C00
0C00
0C00
0E00
0600
0600
0700
0300
0300
0380
0180
ENDCHAR
STARTCHAR bracketright
ENCODING 93
SWIDTH 333 0
DWIDTH 9 0
BBX 5 25 2 -4
BITMAP
F8
F8
18
18
18
18
18
18
18
18
18
18
18
18
18
18
18
18
18
18
18
18
18
F8
F8
ENDCHAR
STARTCHAR asciicircum
ENCODING 94
SWIDTH 600 0
DWIDTH 17 0
BBX 14 11 1 9
BITMAP
0380
0780
07C0
0EC0
0CE0
1C60
1870
3830
3038
7018
E01C
ENDCHAR
STARTCHAR underscore
ENCODING 95
SWIDTH 500 0
DWIDTH 14 0
BBX 14 1 0 -4
BITMAP
FFFC
ENDCHAR
STARTCHAR grave
ENCODING 96
SWIDTH 278 0
DWIDTH 8 0
BBX 6 4 0 16
BITMAP
E0
70
38
1C
ENDCHAR
STARTCHAR a
ENCODING 97
SWIDTH 556 0
DWIDTH 16 0
BBX 12 14 2 0
BITMAP
1F80
7FE0
60E0
0070
0070
1FF0
7FF0
F070
E070
E070
E0F0
F1F0
7FF0
3E70
ENDCHAR
STARTCHAR b
ENCODING 98
SWIDTH 611 0
DWIDTH 17 0
BBX 14 21 2 0
BITMAP
E000
E000
E000
E000
E000
E000
E000
E7C0
EFF0
F878
F038
F038
E01C
E01C
E01C
E01C
F038
F038
F8F8
EFF0
E7C0
ENDCHAR
STARTCHAR c
ENCODING 99
SWIDTH 444 0
DWIDTH 12 0
BBX 11 14 1 0
BITMAP
0FC0
1FC0
3C40
7000
F000
E000
E000
E000
E000
F000
7000
3C40
1FC0
0FE0
ENDCHAR
STARTCHAR d
ENCODING 100
SWIDTH 611 0
DWIDTH 17 0
BBX 14 21 1 0
BITMAP
001C
001C
001C
001C
001C
001C
001C
0F9C
3FDC
78FC
703C
E03C
E01C
E01C
E01C
E01C
F03C
703C
7CFC
3FDC
0F9C
ENDCHAR
STARTCHAR e
ENCODING 101
SWIDTH 556 0
DWIDTH 16 0
BBX 13 14 1 0
BITMAP
0FC0
3FE0
78F0
7070
E038
E038
FFF8
FFF8
E000
E000
7000
7C30
3FF0
0FE0
ENDCHAR
STARTCHAR f
ENCODING 102
SWIDTH 389 0
DWIDTH 11 0
BBX 10 21 1 0
BITMAP
07C0
0FC0
1E00
1C00
1C00
1C00
1C00
FFC0
FFC0
1C00
1C00
1C00
1C00
1C00
1C00
1C00
1C00
1C00
1C00
1C00
1C00
ENDCHAR
STARTCHAR g
ENCODING 103
SWIDTH 611 0
DWIDTH 17 0
BBX 14 20 1 -6
BITMAP
0F9C
3FFC
7C7C
703C
F03C
E01C
E01C
E01C
E01C
F01C
703C
787C
3FDC
0F9C
001C
001C
0038
7078
7FF0
1FC0
ENDCHAR
STARTCHAR h
ENCODING 104
SWIDTH 611 0
DWIDTH 17 0
BBX 13 21 2 0
BITMAP
E000
E000
E000
E000
E000
E000
E000
E7C0
EFF0
F8F0
F078
F038
E038
E038
E038
E038
E038
E038
E038
E038
E038
ENDCHAR
STARTCHAR i
ENCODING 105
SWIDTH 278 0
DWIDTH 8 0
BBX 3 20 2 0
BITMAP
E0
E0
E0
00
00
00
E0
E0
E0
E0
E0
E0
E0
E0
E0
E0
E0
E0
E0
E0
ENDCHAR
STARTCHAR j
ENCODING 106
SWIDTH 278 0
DWIDTH 8 0
BBX 6 26 0 -6
BITMAP
1C
1C
1C
00
00
00
1C
1C
1C
1C
1C
1C
1C
1C
1C
1C
1C
1C
1C
1C
1C
1C
1C
3C
F8
F0
ENDCHAR
STARTCHAR k
ENCODING 107
SWIDTH 556 0
DWIDTH 16 0
BBX 13 21 2 0
BITMAP
E000
E000
E000
E000
E000
E000
E000
E0F0
E1C0
E380
E700
EE00
FC00
FC00
EE00
EF00
E780
E3C0
E1E0
E0E0
E078
ENDCHAR
STARTCHAR l
ENCODING 108
SWIDTH 278 0
DWIDTH 7 0
BBX 3 21 2 0
BITMAP
E0
E0
E0
E0
E0
E0
E0
E0
E0
E0
E0
E0
E0
E0
E0
E0
E0
E0
E0
E0
E0
ENDCHAR
STARTCHAR m
ENCODING 109
SWIDTH 889 0
DWIDTH 25 0
BBX 21 14 2 0
BITMAP
E7C3E0
EFEFF0
F8EC70
F07838
E07038
E07038
E07038
E07038
E07038
E07038
E07038
E07038
E07038
E07038
ENDCHAR
STARTCHAR n
ENCODING 110
SWIDTH 611 0
DWIDTH 17 0
BBX 13 14 2 0
BITMAP
E7C0
EFF0
F8F0
F078
F038
E038
E038
E038
E038
E038
E038
E038
E038
E038
ENDCHAR
STARTCHAR o
ENCODING 111
SWIDTH 611 0
DWIDTH 17 0
BBX 15 14 1 0
BITMAP
0FC0
1FF0
3C78
703C
F01C
E00E
E00E
E00E
E00E
F01C
703C
3C78
1FF0
07C0
ENDCHAR
STARTCHAR p
ENCODING 112
SWIDTH 611 0
DWIDTH 17 0
BBX 14 20 2 -6
BITMAP
E7C0
EFF0
F878
F038
F038
E01C
E01C
E01C
E01C
F038
F038
F8F8
EFF0
E7C0
E000
E000
E000
E000
E000
E000
ENDCHAR
STARTCHAR q
ENCODING 113
SWIDTH 611 0
DWIDTH 17 0
BBX 14 20 1 -6
BITMAP
0F9C
3FDC
78FC
703C
E03C
E01C
E01C
E01C
E01C
F03C
703C
7CFC
3FDC
0F9C
001C
001C
001C
001C
001C
001C
ENDCHAR
STARTCHAR r
ENCODING 114
SWIDTH 389 0
DWIDTH 11 0
BBX 8 14 2 0
BITMAP
E7
FF
FD
F0
F0
E0
E0
E0
E0
E0
E0
E0
E0
E0
ENDCHAR
STARTCHAR s
ENCODING 115
SWIDTH 389 0
DWIDTH 11 0
BBX 9 14 1 0
BITMAP
3F00
7F00
F100
E000
E000
F000
7E00
1F00
0780
0380
0380
8780
FF00
FE00
ENDCHAR
STARTCHAR t
ENCODING 116
SWIDTH 389 0
DWIDTH 11 0
BBX 10 18 0 0
BITMAP
0C00
1C00
1C00
1C00
FFC0
FFC0
1C00
1C00
1C00
1C00
1C00
1C00
1C00
1C00
1C00
1E40
0FC0
07C0
ENDCHAR
STARTCHAR u
ENCODING 117
SWIDTH 611 0
DWIDTH 17 0
BBX 13 14 2 0
BITMAP
E038
E038
E038
E038
E038
E038
E038
E038
E038
E078
F078
70F8
7FB8
1F38
ENDCHAR
STARTCHAR v
ENCODING 118
SWIDTH 500 0
DWIDTH 14 0
BBX 14 14 0 0
BITMAP
E03C
7038
7038
7070
3870
3870
38E0
1CE0
1CC0
0CC0
0FC0
0F80
0780
0780
ENDCHAR
STARTCHAR w
ENCODING 119
SWIDTH 833 0
DWIDTH 23 0
BBX 23 14 0 0
BITMAP
E0380E
703C1C
706C1C
706C1C
306E18
38CE38
38C638
18C630
198730
1D8370
0D8360
0F83E0
0F01E0
0701C0
ENDCHAR
STARTCHAR x
ENCODING 120
SWIDTH 500 0
DWIDTH 14 0
BBX 14 14 0 0
BITMAP
7038
3870
3860
1CE0
0FC0
0F80
0780
0780
0FC0
1DC0
18E0
3870
7078
F03C
ENDCHAR
STARTCHAR y
ENCODING 121
SWIDTH 500 0
DWIDTH 14 0
BBX 13 20 1 -6
BITMAP
E038
E038
6070
7070
7070
30E0
38E0
38E0
18C0
1DC0
0D80
0D80
0F80
0700
0700
0700
0E00
1E00
7C00
F800
ENDCHAR
STARTCHAR z
ENCODING 122
SWIDTH 500 0
DWIDTH 14 0
BBX 12 14 1 0
BITMAP
FFE0
FFE0
00E0
01C0
0380
0700
0F00
0E00
1C00
3800
7000
E000
FFF0
FFF0
ENDCHAR
STARTCHAR braceleft
ENCODING 123
SWIDTH 333 0
DWIDTH 9 0
BBX 7 25 1 -4
BITMAP
0E
1E
38
30
30
30
30
30
30
30
30
70
E0
E0
70
30
30
30
30
30
30
30
38
1E
1E
ENDCHAR
STARTCHAR bar
ENCODING 124
SWIDTH 222 0
DWIDTH 6 0
BBX 2 28 2 -7
BITMAP
C0
C0
C0
C0
C0
C0
C0
C0
C0
C0
C0
C0
C0
C0
C0
C0
C0
C0
C0
C0
C0
C0
C0
C0
C0
C0
C0
C0
ENDCHAR
STARTCHAR braceright
ENCODING 125
SWIDTH 333 0
DWIDTH 9 0
BBX 7 25 1 -4
BITMAP
E0
F0
38
18
18
18
18
18
18
18
18
1C
0E
0E
1C
18
18
18
18
18
18
18
38
F0
E0
ENDCHAR
STARTCHAR asciitilde
ENCODING 126
SWIDTH 600 0
DWIDTH 17 0
BBX 13 4 2 5
BITMAP
3C10
7F18
EFF8
41F0
ENDCHAR
STARTCHAR Zcaron
ENCODING 142
SWIDTH 556 0
DWIDTH 16 0
BBX 14 25 1 0
BITMAP
1830
0C60
06C0
0380
0000
FFF8
FFF8
0038
0038
0070
00E0
00E0
01C0
0380
0380
0700
0E00
1C00
1C00
3800
7000
7000
E000
FFFC
FFFC
ENDCHAR
STARTCHAR zcaron
ENCODING 158
SWIDTH 500 0
DWIDTH 14 0
BBX 12 20 1 0
BITMAP
3060
18C0
0D80
0700
0000
0000
FFE0
FFE0
00E0
01C0
0380
0700
0F00
0E00
1C00
3800
7000
E000
FFF0
FFF0
ENDCHAR
STARTCHAR nonbreakingspace
ENCODING 160
SWIDTH 278 0
DWIDTH 8 0
BBX 1 1 0 0
BITMAP
00
ENDCHAR
STARTCHAR exclamdown
ENCODING 161
SWIDTH 389 0
DWIDTH 11 0
BBX 3 19 4 -5
BITMAP
E0
E0
E0
00
00
E0
E0
E0
E0
E0
E0
E0
E0
E0
E0
E0
E0
E0
E0
ENDCHAR
STARTCHAR cent
ENCODING 162
SWIDTH 556 0
DWIDTH 16 0
BBX 11 20 2 -3
BITMAP
00C0
00C0
0080
0FC0
1FC0
7DC0
7100
F300
E300
E200
E600
E600
F400
7C00
3C40
1FE0
1FC0
1800
1800
3000
ENDCHAR
STARTCHAR sterling
ENCODING 163
SWIDTH 556 0
DWIDTH 16 0
BBX 13 20 1 0
BITMAP
01F8
07F8
0FF8
0E00
1E00
1C00
1C00
1C00
1C00
7FE0
7FE0
1C00
1C00
1C00
1C00
1C00
1C00
1C00
FFF8
FFF8
ENDCHAR
STARTCHAR currency
ENCODING 164
SWIDTH 556 0
DWIDTH 16 0
BBX 14 14 1 3
BITMAP
4FC8
FFFC
7CF8
7038
E01C
E01C
E01C
C01C
E01C
E01C
7038
7CF8
FFFC
4FC8
ENDCHAR
STARTCHAR yen
ENCODING 165
SWIDTH 556 0
DWIDTH 16 0
BBX 15 20 0 0
BITMAP
E00E
701C
701C
3838
3838
1C70
1C70
0EE0
0EE0
07C0
3FF8
3FF8
0380
0380
3FF8
3FF8
0380
0380
0380
0380
ENDCHAR
STARTCHAR brokenbar
ENCODING 166
SWIDTH 222 0
DWIDTH 6 0
BBX 2 24 2 -5
BITMAP
C0
C0
C0
C0
C0
C0
C0
C0
C0
C0
00
00
00
00
C0
C0
C0
C0
C0
C0
C0
C0
C0
C0
ENDCHAR
STARTCHAR section
ENCODING 167
SWIDTH 556 0
DWIDTH 16 0
BBX 11 23 2 -3
BITMAP
1FC0
7FC0
F8C0
E000
E000
E000
7800
3F00
7FC0
E3C0
C0E0
E060
F060
7CE0
3FC0
0FC0
01E0
00E0
00E0
00E0
E3E0
FFC0
7F00
ENDCHAR
STARTCHAR dieresis
ENCODING 168
SWIDTH 278 0
DWIDTH 8 0
BBX 8 3 0 16
BITMAP
E7
E7
E7
ENDCHAR
STARTCHAR copyright
ENCODING 169
SWIDTH 800 0
DWIDTH 22 0
BBX 20 20 1 0
BITMAP
01F800
07FE00
1E0780
3801C0
30F8C0
63FC60
670E60
C60630
C60030
C60030
C60030
C60030
C60630
630E60
63FC60
30F8C0
3801C0
1E0780
07FE00
01F800
ENDCHAR
STARTCHAR ordfeminine
ENCODING 170
SWIDTH 361 0
DWIDTH 10 0
BBX 8 9 1 11
BITMAP
7E
7F
83
3F
F3
C3
C3
FF
7B
ENDCHAR
STARTCHAR guillemotleft
ENCODING 171
SWIDTH 556 0
DWIDTH 16 0
BBX 12 11 1 2
BITMAP
0C30
1860
38E0
71C0
71C0
E380
71C0
71C0
38E0
1860
0C30
ENDCHAR
STARTCHAR logicalnot
ENCODING 172
SWIDTH 600 0
DWIDTH 17 0
BBX 14 8 1 3
BITMAP
FFFC
FFFC
000C
000C
000C
000C
000C
000C
ENDCHAR
STARTCHAR hyphen.dup1
ENCODING 173
SWIDTH 333 0
DWIDTH 9 0
BBX 7 2 1 7
BITMAP
FE
FE
ENDCHAR
STARTCHAR registered
ENCODING 174
SWIDTH 800 0
DWIDTH 22 0
BBX 20 20 1 0
BITMAP
01F800
07FE00
1E0780
3801C0
33F0C0
63FC60
630E60
C30630
C30E30
C3FC30
C3F030
C33030
C31830
631860
630C60
3306C0
3801C0
1E0780
07FE00
01F800
ENDCHAR
STARTCHAR macron
ENCODING 175
SWIDTH 278 0
DWIDTH 8 0
BBX 8 2 0 17
BITMAP
FF
FF
ENDCHAR
STARTCHAR degree
ENCODING 176
SWIDTH 400 0
DWIDTH 11 0
BBX 8 8 2 12
BITMAP
3C
7E
C3
C3
C3
C3
7E
3C
ENDCHAR
STARTCHAR plusminus
ENCODING 177
SWIDTH 600 0
DWIDTH 17 0
BBX 14 14 1 0
BITMAP
0300
0300
0300
0300
FFFC
FFFC
0300
0300
0300
0300
0000
0000
FFFC
FFFC
ENDCHAR
STARTCHAR twosuperior
ENCODING 178
SWIDTH 361 0
DWIDTH 10 0
BBX 9 12 1 8
BITMAP
7C00
7E00
8700
0300
0300
0600
0E00
1C00
3800
7000
FF80
FF80
ENDCHAR
STARTCHAR threesuperior
ENCODING 179
SWIDTH 361 0
DWIDTH 10 0
BBX 8 12 1 8
BITMAP
7C
7E
87
03
07
3C
3E
07
03
87
FF
FC
ENDCHAR
STARTCHAR acute
ENCODING 180
SWIDTH 278 0
DWIDTH 8 0
BBX 5 4 3 16
BITMAP
38
70
60
C0
ENDCHAR
STARTCHAR mu
ENCODING 181
SWIDTH 611 0
DWIDTH 17 0
BBX 13 20 2 -6
BITMAP
E038
E038
E038
E038
E038
E038
E038
E038
E038
E078
F078
F0F8
FFB8
FF38
E000
E000
E000
E000
E000
E000
ENDCHAR
STARTCHAR paragraph
ENCODING 182
SWIDTH 600 0
DWIDTH 17 0
BBX 14 23 1 -3
BITMAP
1FFC
7FFC
7F0C
FF0C
FF0C
FF0C
FF0C
FF0C
7F0C
3F0C
030C
030C
030C
030C
030C
030C
030C
030C
030C
030C
030C
030C
030C
ENDCHAR
STARTCHAR periodcentered
ENCODING 183
SWIDTH 278 0
DWIDTH 8 0
BBX 3 3 2 7
BITMAP
E0
E0
E0
ENDCHAR
STARTCHAR cedilla
ENCODING 184
SWIDTH 278 0
DWIDTH 8 0
BBX 6 6 3 -6
BITMAP
30
20
7C
0C
0C
F8
ENDCHAR
STARTCHAR onesuperior
ENCODING 185
SWIDTH 361 0
DWIDTH 10 0
BBX 5 12 1 8
BITMAP
18
78
F8
98
18
18
18
18
18
18
18
18
ENDCHAR
STARTCHAR ordmasculine
ENCODING 186
SWIDTH 397 0
DWIDTH 11 0
BBX 10 9 1 11
BITMAP
1E00
7F80
E1C0
C0C0
C0C0
C0C0
E1C0
7F80
1E00
ENDCHAR
STARTCHAR guillemotright
ENCODING 187
SWIDTH 556 0
DWIDTH 16 0
BBX 12 11 2 2
BITMAP
C300
6180
71C0
38E0
38E0
1C70
38E0
38E0
71C0
6180
C300
ENDCHAR
STARTCHAR onequarter
ENCODING 188
SWIDTH 834 0
DWIDTH 23 0
BBX 21 21 1 -1
BITMAP
180180
780300
F80300
980600
180600
180C00
181800
181800
183070
1830F0
1860F0
18E1B0
00C330
018330
018630
030630
030FF8
060FF8
0C0030
0C0030
180000
ENDCHAR
STARTCHAR onehalf
ENCODING 189
SWIDTH 834 0
DWIDTH 23 0
BBX 22 21 1 -1
BITMAP
180300
780600
F80600
980C00
180C00
181800
183000
183000
1863E0
1863F0
18C438
19C018
018018
030030
030070
0600E0
0601C0
0C0380
1807FC
1807FC
300000
ENDCHAR
STARTCHAR threequarters
ENCODING 190
SWIDTH 834 0
DWIDTH 23 0
BBX 21 21 1 -1
BITMAP
7C00C0
7E0180
870180
030300
070300
3C0600
3E0C00
070C00
031870
8718F0
FF30F0
FC71B0
006330
00C330
00C630
018630
018FF8
030FF8
060030
060030
0C0000
ENDCHAR
STARTCHAR questiondown
ENCODING 191
SWIDTH 500 0
DWIDTH 14 0
BBX 11 20 1 -6
BITMAP
0E00
0E00
0E00
0000
0000
0E00
0E00
0E00
1C00
1C00
3800
7000
E000
E000
E000
E000
F040
7FC0
7FC0
1FA0
ENDCHAR
STARTCHAR Agrave
ENCODING 192
SWIDTH 722 0
DWIDTH 20 0
BBX 19 25 1 0
BITMAP
070000
038000
01C000
00E000
000000
00E000
01E000
01F000
01B000
03B000
033800
071800
061C00
0E1C00
0E0E00
0C0E00
1C0600
180700
3FFF00
3FFF80
300380
700180
6001C0
E001C0
C000E0
ENDCHAR
STARTCHAR Aacute
ENCODING 193
SWIDTH 722 0
DWIDTH 20 0
BBX 19 25 1 0
BITMAP
003800
007000
006000
00C000
000000
00E000
01E000
01F000
01B000
03B000
033800
071800
061C00
0E1C00
0E0E00
0C0E00
1C0600
180700
3FFF00
3FFF80
300380
700180
6001C0
E001C0
C000E0
ENDCHAR
STARTCHAR Acircumflex
ENCODING 194
SWIDTH 722 0
DWIDTH 20 0
BBX 19 25 1 0
BITMAP
00E000
01B000
031800
060C00
000000
00E000
01E000
01F000
01B000
03B000
033800
071800
061C00
0E1C00
0E0E00
0C0E00
1C0600
180700
3FFF00
3FFF80
300380
700180
6001C0
E001C0
C000E0
ENDCHAR
STARTCHAR Atilde
ENCODING 195
SWIDTH 722 0
DWIDTH 20 0
BBX 19 25 1 0
BITMAP
078400
0FFC00
087800
000000
000000
00E000
01E000
01F000
01B000
03B000
033800
071800
061C00
0E1C00
0E0E00
0C0E00
1C0600
180700
3FFF00
3FFF80
300380
700180
6001C0
E001C0
C000E0
ENDCHAR
STARTCHAR Adieresis
ENCODING 196
SWIDTH 722 0
DWIDTH 20 0
BBX 19 24 1 0
BITMAP
073800
073800
073800
000000
00E000
01E000
01F000
01B000
03B000
033800
071800
061C00
0E1C00
0E0E00
0C0E00
1C0600
180700
3FFF00
3FFF80
300380
700180
6001C0
E001C0
C000E0
ENDCHAR
STARTCHAR Aring
ENCODING 197
SWIDTH 722 0
DWIDTH 20 0
BBX 19 26 1 0
BITMAP
01E000
033000
021000
021000
033000
01E000
00E000
01E000
01F000
01B000
03B000
033800
071800
061C00
0E1C00
0E0E00
0C0E00
1C0600
180700
3FFF00
3FFF80
300380
700180
6001C0
E001C0
C000E0
ENDCHAR
STARTCHAR AE
ENCODING 198
SWIDTH 944 0
DWIDTH 26 0
BBX 24 20 0 0
BITMAP
000FFF
001FFF
003F00
003B80
007380
007380
00E380
01E380
01C3FF
0383FF
038380
070380
0F0380
0FFF80
1FFF80
1C0380
380180
380180
7001FF
E001FF
ENDCHAR
STARTCHAR Ccedilla
ENCODING 199
SWIDTH 611 0
DWIDTH 17 0
BBX 15 26 1 -6
BITMAP
01FC
07FE
1FDE
3E02
7800
7000
7000
E000
E000
E000
E000
E000
E000
F000
7000
7800
3C00
1F8E
0FFE
03FC
0080
01C0
0170
0030
0470
03C0
ENDCHAR
STARTCHAR Egrave
ENCODING 200
SWIDTH 556 0
DWIDTH 16 0
BBX 11 25 3 0
BITMAP
7000
3800
1C00
0E00
0000
FFE0
FFE0
E000
E000
E000
E000
E000
E000
FFC0
FFC0
E000
E000
E000
E000
E000
E000
E000
E000
FFE0
FFE0
ENDCHAR
STARTCHAR Eacute
ENCODING 201
SWIDTH 556 0
DWIDTH 16 0
BBX 11 25 3 0
BITMAP
0380
0700
0600
0C00
0000
FFE0
FFE0
E000
E000
E000
E000
E000
E000
FFC0
FFC0
E000
E000
E000
E000
E000
E000
E000
E000
FFE0
FFE0
ENDCHAR
STARTCHAR Ecircumflex
ENCODING 202
SWIDTH 556 0
DWIDTH 16 0
BBX 11 25 3 0
BITMAP
0E00
1B00
3180
60C0
0000
FFE0
FFE0
E000
E000
E000
E000
E000
E000
FFC0
FFC0
E000
E000
E000
E000
E000
E000
E000
E000
FFE0
FFE0
ENDCHAR
STARTCHAR Edieresis
ENCODING 203
SWIDTH 556 0
DWIDTH 16 0
BBX 11 24 3 0
BITMAP
7380
7380
7380
0000
FFE0
FFE0
E000
E000
E000
E000
E000
E000
FFC0
FFC0
E000
E000
E000
E000
E000
E000
E000
E000
FFE0
FFE0
ENDCHAR
STARTCHAR Igrave
ENCODING 204
SWIDTH 278 0
DWIDTH 8 0
BBX 6 25 0 0
BITMAP
E0
70
38
1C
00
1C
1C
1C
1C
1C
1C
1C
1C
1C
1C
1C
1C
1C
1C
1C
1C
1C
1C
1C
1C
ENDCHAR
STARTCHAR Iacute
ENCODING 205
SWIDTH 278 0
DWIDTH 8 0
BBX 5 25 3 0
BITMAP
38
70
60
C0
00
E0
E0
E0
E0
E0
E0
E0
E0
E0
E0
E0
E0
E0
E0
E0
E0
E0
E0
E0
E0
ENDCHAR
STARTCHAR Icircumflex
ENCODING 206
SWIDTH 278 0
DWIDTH 8 0
BBX 9 25 0 0
BITMAP
1C00
3600
6300
C180
0000
1C00
1C00
1C00
1C00
1C00
1C00
1C00
1C00
1C00
1C00
1C00
1C00
1C00
1C00
1C00
1C00
1C00
1C00
1C00
1C00
ENDCHAR
STARTCHAR Idieresis
ENCODING 207
SWIDTH 278 0
DWIDTH 8 0
BBX 8 24 0 0
BITMAP
E7
E7
E7
00
1C
1C
1C
1C
1C
1C
1C
1C
1C
1C
1C
1C
1C
1C
1C
1C
1C
1C
1C
1C
ENDCHAR
STARTCHAR Eth
ENCODING 208
SWIDTH 722 0
DWIDTH 20 0
BBX 18 20 0 0
BITMAP
3FE000
3FFC00
38FE00
380F00
380780
380380
3801C0
3801C0
FFC1C0
FFC1C0
3801C0
3801C0
3801C0
3801C0
380380
380780
380F00
38FE00
3FFC00
3FF000
ENDCHAR
STARTCHAR Ntilde
ENCODING 209
SWIDTH 722 0
DWIDTH 20 0
BBX 15 25 2 0
BITMAP
0F08
1FF8
10F0
0000
0000
F00E
F00E
F80E
F80E
FC0E
EC0E
EE0E
E70E
E30E
E38E
E18E
E1CE
E0CE
E0EE
E06E
E07E
E03E
E03E
E01E
E01E
ENDCHAR
STARTCHAR Ograve
ENCODING 210
SWIDTH 778 0
DWIDTH 22 0
BBX 18 25 2 0
BITMAP
070000
038000
01C000
00E000
000000
03F000
0FFC00
3FFF00
3C0780
700380
F003C0
E001C0
E001C0
E001C0
E001C0
E001C0
E001C0
E001C0
E001C0
F003C0
700380
3C0780
3FFF00
0FFE00
03F000
ENDCHAR
STARTCHAR Oacute
ENCODING 211
SWIDTH 778 0
DWIDTH 22 0
BBX 18 25 2 0
BITMAP
003800
007000
006000
00C000
000000
03F000
0FFC00
3FFF00
3C0780
700380
F003C0
E001C0
E001C0
E001C0
E001C0
E001C0
E001C0
E001C0
E001C0
F003C0
700380
3C0780
3FFF00
0FFE00
03F000
ENDCHAR
STARTCHAR Ocircumflex
ENCODING 212
SWIDTH 778 0
DWIDTH 22 0
BBX 18 25 2 0
BITMAP
00E000
01B000
031800
060C00
000000
03F000
0FFC00
3FFF00
3C0780
700380
F003C0
E001C0
E001C0
E001C0
E001C0
E001C0
E001C0
E001C0
E001C0
F003C0
700380
3C0780
3FFF00
0FFE00
03F000
ENDCHAR
STARTCHAR Otilde
ENCODING 213
SWIDTH 778 0
DWIDTH 22 0
BBX 18 25 2 0
BITMAP
078400
0FFC00
087800
000000
000000
03F000
0FFC00
3FFF00
3C0780
700380
F003C0
E001C0
E001C0
E001C0
E001C0
E001C0
E001C0
E001C0
E001C0
F003C0
700380
3C0780
3FFF00
0FFE00
03F000
ENDCHAR
STARTCHAR Odieresis
ENCODING 214
SWIDTH 778 0
DWIDTH 22 0
BBX 18 24 2 0
BITMAP
073800
073800
073800
000000
03F000
0FFC00
3FFF00
3C0780
700380
F003C0
E001C0
E001C0
E001C0
E001C0
E001C0
E001C0
E001C0
E001C0
F003C0
700380
3C0780
3FFF00
0FFE00
03F000
ENDCHAR
STARTCHAR multiply
ENCODING 215
SWIDTH 600 0
DWIDTH 17 0
BBX 12 13 2 1
BITMAP
4020
E070
70E0
39C0
1F80
0F00
0600
0F00
1F80
39C0
70E0
E070
4020
ENDCHAR
STARTCHAR Oslash
ENCODING 216
SWIDTH 778 0
DWIDTH 22 0
BBX 19 20 1 0
BITMAP
03F8C0
0FFF80
1FBF00
3C0780
7807C0
700DC0
F019C0
E010E0
E020E0
E060E0
E0C0E0
E180E0
E100E0
F301C0
7601C0
7C03C0
3C0780
1FBF00
3FFE00
63F800
ENDCHAR
STARTCHAR Ugrave
ENCODING 217
SWIDTH 722 0
DWIDTH 20 0
BBX 15 25 3 0
BITMAP
1C00
0E00
0700
0380
0000
E00E
E00E
E00E
E00E
E00E
E00E
E00E
E00E
E00E
E00E
E00E
E00E
E00E
E00E
E00E
701C
783C
3EF8
1FF0
0FE0
ENDCHAR
STARTCHAR Uacute
ENCODING 218
SWIDTH 722 0
DWIDTH 20 0
BBX 15 25 3 0
BITMAP
00E0
01C0
0180
0300
0000
E00E
E00E
E00E
E00E
E00E
E00E
E00E
E00E
E00E
E00E
E00E
E00E
E00E
E00E
E00E
701C
783C
3EF8
1FF0
0FE0
ENDCHAR
STARTCHAR Ucircumflex
ENCODING 219
SWIDTH 722 0
DWIDTH 20 0
BBX 15 25 3 0
BITMAP
0380
06C0
0C60
1830
0000
E00E
E00E
E00E
E00E
E00E
E00E
E00E
E00E
E00E
E00E
E00E
E00E
E00E
E00E
E00E
701C
783C
3EF8
1FF0
0FE0
ENDCHAR
STARTCHAR Udieresis
ENCODING 220
SWIDTH 722 0
DWIDTH 20 0
BBX 15 24 3 0
BITMAP
1CE0
1CE0
1CE0
0000
E00E
E00E
E00E
E00E
E00E
E00E
E00E
E00E
E00E
E00E
E00E
E00E
E00E
E00E
E00E
701C
783C
3EF8
1FF0
0FE0
ENDCHAR
STARTCHAR Yacute
ENCODING 221
SWIDTH 667 0
DWIDTH 19 0
BBX 19 25 0 0
BITMAP
003800
007000
006000
00C000
000000
F001E0
7803C0
380380
1C0700
1E0700
0E0E00
071C00
071C00
03B800
01F000
01F000
00E000
00E000
00E000
00E000
00E000
00E000
00E000
00E000
00E000
ENDCHAR
STARTCHAR Thorn
ENCODING 222
SWIDTH 556 0
DWIDTH 16 0
BBX 12 20 2 0
BITMAP
E000
E000
E000
FF80
FFE0
E3F0
E0F0
E070
E070
E070
E070
E0F0
E3F0
FFE0
FF80
E000
E000
E000
E000
E000
ENDCHAR
STARTCHAR germandbls
ENCODING 223
SWIDTH 611 0
DWIDTH 17 0
BBX 14 21 2 0
BITMAP
0F80
3FE0
78F0
7070
F038
E038
E038
E070
E0F0
E7C0
E7E0
E0F0
E038
E038
E01C
E01C
E038
E038
E8F8
E7F0
E7C0
ENDCHAR
STARTCHAR agrave
ENCODING 224
SWIDTH 556 0
DWIDTH 16 0
BBX 12 20 2 0
BITMAP
3800
1C00
0E00
0700
0000
0000
1F80
7FE0
60E0
0070
0070
1FF0
7FF0
F070
E070
E070
E0F0
F1F0
7FF0
3E70
ENDCHAR
STARTCHAR aacute
ENCODING 225
SWIDTH 556 0
DWIDTH 16 0
BBX 12 20 2 0
BITMAP
01C0
0380
0300
0600
0000
0000
1F80
7FE0
60E0
0070
0070
1FF0
7FF0
F070
E070
E070
E0F0
F1F0
7FF0
3E70
ENDCHAR
STARTCHAR acircumflex
ENCODING 226
SWIDTH 556 0
DWIDTH 16 0
BBX 12 20 2 0
BITMAP
0700
0D80
18C0
3060
0000
0000
1F80
7FE0
60E0
0070
0070
1FF0
7FF0
F070
E070
E070
E0F0
F1F0
7FF0
3E70
ENDCHAR
STARTCHAR atilde
ENCODING 227
SWIDTH 556 0
DWIDTH 16 0
BBX 12 20 2 0
BITMAP
3C20
7FE0
43C0
0000
0000
0000
1F80
7FE0
60E0
0070
0070
1FF0
7FF0
F070
E070
E070
E0F0
F1F0
7FF0
3E70
ENDCHAR
STARTCHAR adieresis
ENCODING 228
SWIDTH 556 0
DWIDTH 16 0
BBX 12 19 2 0
BITMAP
39C0
39C0
39C0
0000
0000
1F80
7FE0
60E0
0070
0070
1FF0
7FF0
F070
E070
E070
E0F0
F1F0
7FF0
3E70
ENDCHAR
STARTCHAR aring
ENCODING 229
SWIDTH 556 0
DWIDTH 16 0
BBX 12 21 2 0
BITMAP
0F00
1980
1080
1080
1980
0F00
0000
1F80
7FE0
60E0
0070
0070
1FF0
7FF0
F070
E070
E070
E0F0
F1F0
7FF0
3E70
ENDCHAR
STARTCHAR ae
ENCODING 230
SWIDTH 889 0
DWIDTH 25 0
BBX 23 14 1 0
BITMAP
0F83E0
3FEFF8
30FE3C
007C1C
00380E
00380E
1FFFFE
7FFFFE
F03800
E03800
E07C00
70FF08
7FCFF8
1F83F0
ENDCHAR
STARTCHAR ccedilla
ENCODING 231
SWIDTH 444 0
DWIDTH 12 0
BBX 11 20 1 -6
BITMAP
0FC0
1FC0
3C40
7000
F000
E000
E000
E000
E000
F000
7000
3C40
1FC0
0FE0
0600
0700
0B80
0180
1180
0F00
ENDCHAR
STARTCHAR egrave
ENCODING 232
SWIDTH 556 0
DWIDTH 16 0
BBX 13 20 1 0
BITMAP
1C00
0E00
0700
0380
0000
0000
0FC0
3FE0
78F0
7070
E038
E038
FFF8
FFF8
E000
E000
7000
7C30
3FF0
0FE0
ENDCHAR
STARTCHAR eacute
ENCODING 233
SWIDTH 556 0
DWIDTH 16 0
BBX 13 20 1 0
BITMAP
00E0
01C0
0180
0300
0000
0000
0FC0
3FE0
78F0
7070
E038
E038
FFF8
FFF8
E000
E000
7000
7C30
3FF0
0FE0
ENDCHAR
STARTCHAR ecircumflex
ENCODING 234
SWIDTH 556 0
DWIDTH 16 0
BBX 13 20 1 0
BITMAP
0380
06C0
0C60
1830
0000
0000
0FC0
3FE0
78F0
7070
E038
E038
FFF8
FFF8
E000
E000
7000
7C30
3FF0
0FE0
ENDCHAR
STARTCHAR edieresis
ENCODING 235
SWIDTH 556 0
DWIDTH 16 0
BBX 13 19 1 0
BITMAP
1CE0
1CE0
1CE0
0000
0000
0FC0
3FE0
78F0
7070
E038
E038
FFF8
FFF8
E000
E000
7000
7C30
3FF0
0FE0
ENDCHAR
STARTCHAR igrave
ENCODING 236
SWIDTH 278 0
DWIDTH 8 0
BBX 6 20 0 0
BITMAP
E0
70
38
1C
00
00
38
38
38
38
38
38
38
38
38
38
38
38
38
38
ENDCHAR
STARTCHAR iacute
ENCODING 237
SWIDTH 278 0
DWIDTH 8 0
BBX 6 20 2 0
BITMAP
1C
38
30
60
00
00
E0
E0
E0
E0
E0
E0
E0
E0
E0
E0
E0
E0
E0
E0
ENDCHAR
STARTCHAR icircumflex
ENCODING 238
SWIDTH 278 0
DWIDTH 8 0
BBX 9 20 0 0
BITMAP
1C00
3600
6300
C180
0000
0000
3800
3800
3800
3800
3800
3800
3800
3800
3800
3800
3800
3800
3800
3800
ENDCHAR
STARTCHAR idieresis
ENCODING 239
SWIDTH 278 0
DWIDTH 8 0
BBX 8 19 0 0
BITMAP
E7
E7
E7
00
00
38
38
38
38
38
38
38
38
38
38
38
38
38
38
ENDCHAR
STARTCHAR eth
ENCODING 240
SWIDTH 611 0
DWIDTH 17 0
BBX 15 21 1 0
BITMAP
1820
7EF0
0FC0
0FC0
3DE0
30F0
0070
0FB8
1FF8
3C7C
703C
F01C
E00C
E00E
E00C
E00C
F01C
703C
3C78
1FF0
0FC0
ENDCHAR
STARTCHAR ntilde
ENCODING 241
SWIDTH 611 0
DWIDTH 17 0
BBX 13 20 2 0
BITMAP
1E10
3FF0
21E0
0000
0000
0000
E7C0
EFF0
F8F0
F078
F038
E038
E038
E038
E038
E038
E038
E038
E038
E038
ENDCHAR
STARTCHAR ograve
ENCODING 242
SWIDTH 611 0
DWIDTH 17 0
BBX 15 20 1 0
BITMAP
0E00
0700
0380
01C0
0000
0000
0FC0
1FF0
3C78
703C
F01C
E00E
E00E
E00E
E00E
F01C
703C
3C78
1FF0
07C0
ENDCHAR
STARTCHAR oacute
ENCODING 243
SWIDTH 611 0
DWIDTH 17 0
BBX 15 20 1 0
BITMAP
0070
00E0
00C0
0180
0000
0000
0FC0
1FF0
3C78
703C
F01C
E00E
E00E
E00E
E00E
F01C
703C
3C78
1FF0
07C0
ENDCHAR
STARTCHAR ocircumflex
ENCODING 244
SWIDTH 611 0
DWIDTH 17 0
BBX 15 20 1 0
BITMAP
01C0
0360
0630
0C18
0000
0000
0FC0
1FF0
3C78
703C
F01C
E00E
E00E
E00E
E00E
F01C
703C
3C78
1FF0
07C0
ENDCHAR
STARTCHAR otilde
ENCODING 245
SWIDTH 611 0
DWIDTH 17 0
BBX 15 20 1 0
BITMAP
0F08
1FF8
10F0
0000
0000
0000
0FC0
1FF0
3C78
703C
F01C
E00E
E00E
E00E
E00E
F01C
703C
3C78
1FF0
07C0
ENDCHAR
STARTCHAR odieresis
ENCODING 246
SWIDTH 611 0
DWIDTH 17 0
BBX 15 19 1 0
BITMAP
0E70
0E70
0E70
0000
0000
0FC0
1FF0
3C78
703C
F01C
E00E
E00E
E00E
E00E
F01C
703C
3C78
1FF0
07C0
ENDCHAR
STARTCHAR divide
ENCODING 247
SWIDTH 600 0
DWIDTH 17 0
BBX 14 16 1 -1
BITMAP
0300
0780
0780
0780
0000
0000
0000
FFFC
FFFC
0000
0000
0000
0780
0780
0780
0300
ENDCHAR
STARTCHAR oslash
ENCODING 248
SWIDTH 611 0
DWIDTH 17 0
BBX 15 16 1 -1
BITMAP
0008
0FCC
1FF8
3C78
703C
F05C
E08E
E10E
E20E
E41E
E41C
783C
3C78
3FF0
47C0
8000
ENDCHAR
STARTCHAR ugrave
ENCODING 249
SWIDTH 611 0
DWIDTH 17 0
BBX 13 20 2 0
BITMAP
1C00
0E00
0700
0380
0000
0000
E038
E038
E038
E038
E038
E038
E038
E038
E038
E078
F078
70F8
7FB8
1F38
ENDCHAR
STARTCHAR uacute
ENCODING 250
SWIDTH 611 0
DWIDTH 17 0
BBX 13 20 2 0
BITMAP
00E0
01C0
0180
0300
0000
0000
E038
E038
E038
E038
E038
E038
E038
E038
E038
E078
F078
70F8
7FB8
1F38
ENDCHAR
STARTCHAR ucircumflex
ENCODING 251
SWIDTH 611 0
DWIDTH 17 0
BBX 13 20 2 0
BITMAP
0380
06C0
0C60
1830
0000
0000
E038
E038
E038
E038
E038
E038
E038
E038
E038
E078
F078
70F8
7FB8
1F38
ENDCHAR
STARTCHAR udieresis
ENCODING 252
SWIDTH 611 0
DWIDTH 17 0
BBX 13 19 2 0
BITMAP
1CE0
1CE0
1CE0
0000
0000
E038
E038
E038
E038
E038
E038
E038
E038
E038
E078
F078
70F8
7FB8
1F38
ENDCHAR
STARTCHAR yacute
ENCODING 253
SWIDTH 500 0
DWIDTH 14 0
BBX 13 26 1 -6
BITMAP
01C0
0380
0300
0600
0000
0000
E038
E038
6070
7070
7070
30E0
38E0
38E0
18C0
1DC0
0D80
0D80
0F80
0700
0700
0700
0E00
1E00
7C00
F800
ENDCHAR
STARTCHAR thorn
ENCODING 254
SWIDTH 611 0
DWIDTH 17 0
BBX 14 27 2 -6
BITMAP
E000
E000
E000
E000
E000
E000
E000
E7C0
EFF0
F878
F038
F038
E01C
E01C
E01C
E01C
F038
F038
F8F8
EFF0
E7C0
E000
E000
E000
E000
E000
E000
ENDCHAR
STARTCHAR ydieresis
ENCODING 255
SWIDTH 500 0
DWIDTH 14 0
BBX 13 25 1 -6
BITMAP
39C0
39C0
39C0
0000
0000
E038
E038
6070
7070
7070
30E0
38E0
38E0
18C0
1DC0
0D80
0D80
0F80
0700
0700
0700
0E00
1E00
7C00
F800
ENDCHAR
STARTCHAR .notdef
ENCODING -1
SWIDTH 500 0
DWIDTH 14 0
BBX 12 14 1 0
BITMAP
FFF0
8010
8010
8010
8010
8010
8010
8010
8010
8010
8010
8010
8010
FFF0
ENDCHAR
STARTCHAR quoteright
ENCODING -1
SWIDTH 278 0
DWIDTH 8 0
BBX 5 7 1 13
BITMAP
38
38
70
70
70
60
E0
ENDCHAR
STARTCHAR quoteleft
ENCODING -1
SWIDTH 278 0
DWIDTH 8 0
BBX 4 7 2 13
BITMAP
30
70
70
70
E0
E0
E0
ENDCHAR
STARTCHAR fraction.dup2
ENCODING -1
SWIDTH 167 0
DWIDTH 5 0
BBX 14 21 -5 -1
BITMAP
000C
0018
0018
0030
0060
0060
00C0
00C0
0180
0180
0300
0600
0600
0C00
0C00
1800
1800
3000
6000
6000
C000
ENDCHAR
STARTCHAR florin
ENCODING -1
SWIDTH 556 0
DWIDTH 16 0
BBX 14 26 1 -6
BITMAP
003C
00FC
00E0
01C0
01C0
01C0
01C0
0380
1FF8
1FF8
0380
0380
0700
0700
0700
0700
0700
0700
0E00
0E00
0E00
0E00
1E00
3C00
7C00
F000
ENDCHAR
STARTCHAR quotedblleft
ENCODING -1
SWIDTH 556 0
DWIDTH 16 0
BBX 10 7 3 13
BITMAP
31C0
7380
7380
7380
E700
E700
E700
ENDCHAR
STARTCHAR guilsinglleft
ENCODING -1
SWIDTH 278 0
DWIDTH 8 0
BBX 6 11 1 2
BITMAP
0C
18
38
70
70
E0
70
70
38
18
0C
ENDCHAR
STARTCHAR guilsinglright
ENCODING -1
SWIDTH 278 0
DWIDTH 8 0
BBX 6 11 1 2
BITMAP
C0
60
70
38
38
1C
38
38
70
60
C0
ENDCHAR
STARTCHAR fi
ENCODING -1
SWIDTH 667 0
DWIDTH 19 0
BBX 15 21 1 0
BITMAP
07C0
0FCE
1E0E
1C0E
1C00
1C00
1C00
FFCE
FFCE
1C0E
1C0E
1C0E
1C0E
1C0E
1C0E
1C0E
1C0E
1C0E
1C0E
1C0E
1C0E
ENDCHAR
STARTCHAR fl
ENCODING -1
SWIDTH 667 0
DWIDTH 19 0
BBX 15 21 1 0
BITMAP
07CE
0FCE
1E0E
1C0E
1C0E
1C0E
1C0E
FFCE
FFCE
1C0E
1C0E
1C0E
1C0E
1C0E
1C0E
1C0E
1C0E
1C0E
1C0E
1C0E
1C0E
ENDCHAR
STARTCHAR endash
ENCODING -1
SWIDTH 500 0
DWIDTH 14 0
BBX 14 2 0 7
BITMAP
FFFC
FFFC
ENDCHAR
STARTCHAR dagger
ENCODING -1
SWIDTH 556 0
DWIDTH 16 0
BBX 12 20 2 0
BITMAP
0600
0600
0600
0600
0600
0600
FFF0
FFF0
0600
0600
0600
0600
0600
0600
0600
0600
0600
0600
0600
0600
ENDCHAR
STARTCHAR daggerdbl
ENCODING -1
SWIDTH 556 0
DWIDTH 16 0
BBX 12 20 2 0
BITMAP
0600
0600
0600
0600
0600
FFF0
FFF0
0600
0600
0600
0600
0600
0600
FFF0
FFF0
0600
0600
0600
0600
0600
ENDCHAR
STARTCHAR bullet
ENCODING -1
SWIDTH 500 0
DWIDTH 14 0
BBX 10 10 2 4
BITMAP
1E00
7F80
7F80
FFC0
FFC0
FFC0
FFC0
7F80
7F80
1E00
ENDCHAR
STARTCHAR quotesinglbase
ENCODING -1
SWIDTH 278 0
DWIDTH 8 0
BBX 5 7 1 -4
BITMAP
38
38
70
70
70
60
E0
ENDCHAR
STARTCHAR quotedblbase
ENCODING -1
SWIDTH 556 0
DWIDTH 16 0
BBX 10 7 2 -4
BITMAP
39C0
39C0
71C0
7380
7380
6380
E300
ENDCHAR
STARTCHAR quotedblright
ENCODING -1
SWIDTH 556 0
DWIDTH 16 0
BBX 10 7 2 13
BITMAP
39C0
39C0
7380
7380
7380
6300
E700
ENDCHAR
STARTCHAR ellipsis
ENCODING -1
SWIDTH 1000 0
DWIDTH 28 0
BBX 21 3 3 0
BITMAP
E07038
E07038
E07038
ENDCHAR
STARTCHAR perthousand
ENCODING -1
SWIDTH 1000 0
DWIDTH 28 0
BBX 28 21 0 -1
BITMAP
3C030000
7E060000
E7060000
C30C0000
C30C0000
C3180000
C3300000
C3300000
E7600000
7E6F03C0
3CDF87E0
01F9CE70
01B0CC30
0330CC30
0330CC30
0630CC30
0630CC30
0C39CE70
181F87E0
180F03C0
30000000
ENDCHAR
STARTCHAR circumflex
ENCODING -1
SWIDTH 278 0
DWIDTH 8 0
BBX 9 4 0 16
BITMAP
1C00
3600
6300
C180
ENDCHAR
STARTCHAR tilde
ENCODING -1
SWIDTH 278 0
DWIDTH 8 0
BBX 10 3 -1 17
BITMAP
7840
FFC0
8780
ENDCHAR
STARTCHAR breve
ENCODING -1
SWIDTH 278 0
DWIDTH 8 0
BBX 9 4 0 16
BITMAP
8080
C180
7F00
3E00
ENDCHAR
STARTCHAR dotaccent
ENCODING -1
SWIDTH 278 0
DWIDTH 8 0
BBX 3 3 3 16
BITMAP
E0
E0
E0
ENDCHAR
STARTCHAR ring
ENCODING -1
SWIDTH 278 0
DWIDTH 8 0
BBX 6 6 1 15
BITMAP
78
CC
84
84
CC
78
ENDCHAR
STARTCHAR hungarumlaut
ENCODING -1
SWIDTH 278 0
DWIDTH 8 0
BBX 10 4 0 16
BITMAP
39C0
7380
E700
C600
ENDCHAR
STARTCHAR ogonek
ENCODING -1
SWIDTH 278 0
DWIDTH 8 0
BBX 5 6 2 -6
BITMAP
38
60
C0
C0
C8
70
ENDCHAR
STARTCHAR caron
ENCODING -1
SWIDTH 278 0
DWIDTH 8 0
BBX 9 4 0 16
BITMAP
C180
6300
3600
1C00
ENDCHAR
STARTCHAR emdash
ENCODING -1
SWIDTH 1000 0
DWIDTH 28 0
BBX 28 2 0 7
BITMAP
FFFFFFF0
FFFFFFF0
ENDCHAR
STARTCHAR OE
ENCODING -1
SWIDTH 944 0
DWIDTH 26 0
BBX 23 20 2 0
BITMAP
01FFFE
0FFFFE
1FDE00
3C0E00
780E00
700E00
E00E00
E00E00
E00FFC
E00FFC
E00E00
E00E00
E00E00
E00E00
700E00
780E00
3C0E00
1FDE00
0FFFFE
01FFFE
ENDCHAR
STARTCHAR dotlessi
ENCODING -1
SWIDTH 278 0
DWIDTH 8 0
BBX 3 14 2 0
BITMAP
E0
E0
E0
E0
E0
E0
E0
E0
E0
E0
E0
E0
E0
E0
ENDCHAR
STARTCHAR oe
ENCODING -1
SWIDTH 944 0
DWIDTH 27 0
BBX 24 14 2 0
BITMAP
0FC1F0
3FF7FC
78F71E
703E0E
E03C07
E01C07
E01FFF
E01FFF
E01C00
E03C00
F03E00
78F784
3FE7FC
0FC1F8
ENDCHAR
STARTCHAR trademark
ENCODING -1
SWIDTH 990 0
DWIDTH 28 0
BBX 25 12 1 8
BITMAP
FFCE0380
FFCF0380
0C0F0780
0C0F8780
0C0F8580
0C0E8D80
0C0ECD80
0C0ED980
0C0E7980
0C0E7980
0C0E7180
0C0E3180
ENDCHAR
STARTCHAR Ydieresis
ENCODING -1
SWIDTH 667 0
DWIDTH 19 0
BBX 19 24 0 0
BITMAP
03B800
03B800
000000
000000
F001E0
7803C0
380380
1C0700
1C0F00
0E0E00
071C00
073C00
03B800
01F000
01F000
00E000
00E000
00E000
00E000
00E000
00E000
00E000
00E000
00E000
ENDCHAR
STARTCHAR Lslash
ENCODING -1
SWIDTH 500 0
DWIDTH 14 0
BBX 13 20 0 0
BITMAP
3800
3800
3800
3800
3800
3800
3840
38C0
39C0
3F80
3E00
7800
F800
F800
3800
3800
3800
3800
3FF8
3FF8
ENDCHAR
STARTCHAR lslash
ENCODING -1
SWIDTH 278 0
DWIDTH 7 0
BBX 7 21 0 0
BITMAP
38
38
38
38
38
38
3A
3E
3C
38
78
F8
B8
38
38
38
38
38
38
38
38
ENDCHAR
STARTCHAR minus
ENCODING -1
SWIDTH 600 0
DWIDTH 17 0
BBX 15 2 1 6
BITMAP
FFFE
FFFE
ENDCHAR
STARTCHAR Scaron
ENCODING -1
SWIDTH 500 0
DWIDTH 14 0
BBX 11 25 2 0
BITMAP
60C0
3180
1B00
0E00
0000
1F80
7FC0
FDC0
E000
E000
E000
E000
F800
7E00
3F00
0FC0
03C0
01E0
00E0
00E0
00E0
01E0
FFC0
FF80
7E00
ENDCHAR
STARTCHAR scaron
ENCODING -1
SWIDTH 389 0
DWIDTH 11 0
BBX 10 20 1 0
BITMAP
60C0
3180
1B00
0E00
0000
0000
3F00
7F00
F100
E000
E000
F000
7E00
1F00
0780
0380
0380
8780
FF00
FE00
ENDCHAR
STARTCHAR Euro
ENCODING -1
SWIDTH 556 0
DWIDTH 16 0
BBX 16 20 1 0
BITMAP
00FE
03FF
07C6
0F00
1E00
1C00
3C00
FFFC
FFFC
3800
3800
FFF8
FFF8
3C00
1C00
1E00
0F00
07E6
03FE
00FE
ENDCHAR
ENDFONT
